<?xml version="1.0" encoding="UTF-8" standalone="no"?>
<!DOCTYPE svg PUBLIC "-//W3C//DTD SVG 1.1//EN" "http://www.w3.org/Graphics/SVG/1.1/DTD/svg11.dtd">

<svg width="100%" height="100%" viewBox="0 0 1290 692" version="1.1" xmlns="http://www.w3.org/2000/svg" xmlns:xlink="http://www.w3.org/1999/xlink" xml:space="preserve" xmlns:serif="http://www.serif.com/" style="fill-rule:evenodd;clip-rule:evenodd;stroke-linejoin:round;stroke-miterlimit:1.41421;">
    <defs>
    <style>
        @import url('https://fonts.googleapis.com/css?family=Cabin|Open+Sans');
    </style>
    </defs>

    <g transform="matrix(1,0,0,1,-7.34506,178.282)">
        <text x="448.783px" y="158.466px" style="font-family:'Cabin-Regular', 'Cabin';font-size:250px;fill:rgb(124,55,173);">M<tspan x="650.283px 767.783px 851.033px " y="158.466px 158.466px 158.466px ">ate</tspan></text>
    </g>
    <g id="layer103">
        <path d="M166.4,516C163,514.7 152.3,502.2 144.8,491.1C116.6,448.9 109.5,409.3 120.1,352.5C123.6,334 128,318.7 135.1,300.4C139.2,289.9 141.5,286.5 145.7,284.9C147.1,284.4 177.8,284 220.4,284L292.7,284L293.8,278.8C294.4,275.9 301.1,245.2 308.5,210.5C316,175.9 322.6,146.3 323.1,144.8C323.7,143.3 325.7,141.4 327.7,140.5C334.8,137.1 342,141.3 342,148.9C342,150.9 335.7,182 328,217.9C320.3,253.9 314,283.4 314,283.6C314,283.8 321.9,284 331.6,284C353.5,284 354.9,284.5 359.1,293.5C373.9,325.1 384.1,380.9 381,414.2C378.8,439 369.1,465.3 353.5,489C346.2,500 334.5,513.9 331,515.7C329.1,516.7 310.3,517 248.5,516.9C204.5,516.9 167.6,516.5 166.4,516ZM329.6,486.8C333.3,481.7 336.7,476.9 337.3,476.3C338,475.3 320.1,475 248.5,475L158.8,475L160.5,477.8C162.8,481.4 169.9,490.9 172.4,493.8L174.3,496L322.8,496L329.6,486.8ZM352.7,445.3C356.9,433.7 357.6,431.2 359.6,420.5C362.2,406.5 360.9,379.6 356.4,354.8L355.7,351L248.5,351L141.3,351L140.2,356.8C137.4,371.2 136.8,376.6 136.3,392.1C135.5,414.5 137.8,429.2 144.6,446.8L147.4,454L349.6,454L352.7,445.3ZM350,329.7C350,328.5 344.4,311.4 342.5,306.8C341.8,305.1 336.4,305 249,305C176,305 156,305.3 155.2,306.3C154,307.7 147,327.6 147,329.6C147,330.8 162.1,331 248.5,331C331.3,331 350,330.8 350,329.7Z" style="fill:rgb(124,55,173);fill-rule:nonzero;"/>
        <path d="M242.6,256C228,251.5 231.2,229.7 246.5,229.7C251.6,229.7 255.3,231.8 258,236.3C264.2,246.4 254.1,259.4 242.6,256Z" style="fill:rgb(124,55,173);fill-rule:nonzero;"/>
        <path d="M180.5,227.1C163.4,219.2 163.9,193.8 181.2,186.6C186.4,184.4 195.2,184.6 199.8,186.9C207.7,191 212.2,198.3 212.2,207C212.2,215.7 207.7,223 199.8,227.1C194.9,229.6 185.9,229.6 180.5,227.1Z" style="fill:rgb(124,55,173);fill-rule:nonzero;"/>
        <path d="M234.5,188.1C222,182.5 219.6,166.4 230,157.6C244.8,145.2 266.2,161.8 258.1,179.5C255.9,184.3 253.7,186.4 248.7,188.5C243.9,190.5 239.4,190.4 234.5,188.1Z" style="fill:rgb(124,55,173);fill-rule:nonzero;"/>
    </g>
    <g transform="matrix(1,0,0,1,2.98884,39.1575)">
        <text x="444.665px" y="429.434px" style="font-family:'OpenSans-Regular', 'Open Sans', sans-serif;font-size:96px;fill:rgb(124,55,173);">Gatsb<tspan x="704.54px 752.915px " y="429.434px 429.434px ">y </tspan>Starter</text>
    </g>
</svg>
