<svg
  width="100%"
  height="100%"
  viewBox="6.3 0 106 28"
  xmlns="http://www.w3.org/2000/svg"
>
  <g>
    <path
      d="M62.9,12L65.7,12L65.7,22L62.9,22L62.9,20.7C61.9,22.2 60.6,22.3 59.8,22.3C56.7,22.3 54.7,19.9 54.7,17C54.7,14 56.7,11.7 59.6,11.7C60.4,11.7 61.9,11.8 62.8,13.3L62.8,12L62.9,12ZM57.7,17C57.7,18.6 58.8,19.8 60.5,19.8C62.1,19.8 63.3,18.6 63.3,17C63.3,15.4 62.2,14.2 60.5,14.2C58.9,14.2 57.7,15.4 57.7,17Z"
      fill="#FFF"
    />
    <path
      d="M71.2,14.4L71.2,22L68.4,22L68.4,14.4L67.3,14.4L67.3,12L68.4,12L68.4,8.6L71.2,8.6L71.2,12L73.1,12L73.1,14.4L71.2,14.4Z"
      fill="#FFF"
    />
    <path
      d="M79.7,14.4C79,13.8 78.4,13.7 78.1,13.7C77.4,13.7 77,14 77,14.5C77,14.8 77.1,15.1 77.9,15.4L78.6,15.6C79.4,15.9 80.6,16.2 81.1,17C81.4,17.4 81.6,18 81.6,18.7C81.6,19.6 81.3,20.5 80.5,21.2C79.7,21.9 78.7,22.3 77.5,22.3C75.4,22.3 74.3,21.3 73.6,20.6L75.1,18.9C75.7,19.5 76.5,20.1 77.3,20.1C78.1,20.1 78.7,19.7 78.7,19C78.7,18.4 78.2,18.1 77.8,18L77.2,17.8C76.5,17.5 75.7,17.2 75.1,16.6C74.6,16.1 74.3,15.5 74.3,14.7C74.3,13.7 74.8,12.9 75.3,12.4C76.1,11.8 77.1,11.7 77.9,11.7C78.6,11.7 79.8,11.8 81.1,12.8L79.7,14.4Z"
      fill="#FFF"
    />
    <path
      d="M85.8,13.3C86.8,11.9 88.2,11.7 89,11.7C91.9,11.7 93.9,14 93.9,17C93.9,20 91.9,22.3 88.9,22.3C88.3,22.3 86.8,22.2 85.7,20.7L85.7,22L83,22L83,5.2L85.8,5.2L85.8,13.3ZM85.5,17C85.5,18.6 86.6,19.8 88.3,19.8C89.9,19.8 91.1,18.6 91.1,17C91.1,15.4 90,14.2 88.3,14.2C86.6,14.2 85.5,15.4 85.5,17Z"
      fill="#FFF"
    />
    <path
      d="M98.5,20.5L93.7,12L97,12L100.1,17.7L102.9,12L106.1,12L98.1,27.3L94.9,27.3L98.5,20.5Z"
      fill="#FFF"
    />
    <path
      d="M54,13.7L51.2,13.7L47,13.7L47,16.5L50.7,16.5C50.1,18.4 48.7,19.7 46.1,19.7C43.2,19.7 41.1,17.3 41.1,14.4C41.1,11.5 43.1,9 46,9C47.6,9 49.2,9.8 50.2,11.1L52.5,9.6C51,7.5 48.6,6.3 46,6.3C41.6,6.3 38,9.9 38,14.4C38,18.9 41.4,22.5 46,22.5C50.6,22.5 54,18.9 54,14.4C54.1,14.1 54,13.9 54,13.7Z"
      fill="#FFF"
    />
  </g>
  <g>
    <g>
      <path
        d="M25,14L18,14L18,16L22.8,16C22.1,19 19.9,21.5 17,22.5L5.5,11C6.7,7.5 10.1,5 14,5C17,5 19.7,6.5 21.4,8.8L22.9,7.5C20.9,4.8 17.7,3 14,3C8.8,3 4.4,6.7 3.3,11.6L16.5,24.8C21.3,23.6 25,19.2 25,14Z"
        fill="#FFF"
      />
      <path
        d="M3,14.1C3,16.9 4.1,19.6 6.2,21.7C8.3,23.8 11.1,24.9 13.8,24.9L3,14.1Z"
        fill="#FFF"
      />
    </g>
    <path
      d="M14,0C6.3,0 0,6.3 0,14C0,21.7 6.3,28 14,28C21.7,28 28,21.7 28,14C28,6.3 21.7,0 14,0ZM6.2,21.8C4.1,19.7 3,16.9 3,14.2L13.9,25C11.1,24.9 8.3,23.9 6.2,21.8ZM16.4,24.7L3.3,11.6C4.4,6.7 8.8,3 14,3C17.7,3 20.9,4.8 22.9,7.5L21.4,8.8C19.7,6.5 17,5 14,5C10.1,5 6.8,7.5 5.5,11L17,22.5C19.9,21.5 22.1,19 22.8,16L18,16L18,14L25,14C25,19.2 21.3,23.6 16.4,24.7Z"
      fill="rgb(102,51,153)"
    />
  </g>
</svg>