<svg width="1054" height="1054" xmlns="http://www.w3.org/2000/svg" clip-rule="evenodd">

  <g stroke="null" id="layer103">
   <path stroke="null" id="svg_1" fill="#ffffff" fill-rule="nonzero" d="m294.606412,1049.597671c-9.428008,-3.604827 -39.098503,-38.26662 -59.895579,-69.046293c-78.197007,-117.018215 -97.884905,-226.826778 -68.491704,-384.329968c9.705302,-51.299455 21.906254,-93.72549 41.594152,-144.470356c11.369068,-29.115907 17.746838,-38.543915 29.393201,-42.980624c3.882121,-1.386472 89.011486,-2.495649 207.138879,-2.495649l200.483815,0l3.050238,-14.419306c1.663766,-8.041536 20.242488,-93.170901 40.762269,-189.392041c20.797076,-95.943845 39.098503,-178.022972 40.484975,-182.182388c1.663766,-4.159415 7.209653,-9.428008 12.75554,-11.923657c19.687899,-9.428008 39.653092,2.218355 39.653092,23.292725c0,5.545887 -17.469544,91.78443 -38.821209,191.333101c-21.351665,99.825966 -38.821209,181.627799 -38.821209,182.182388c0,0.554589 21.906254,1.109177 48.803805,1.109177c60.727463,0 64.609583,1.386472 76.255946,26.342963c41.039564,87.625014 69.323587,242.355261 60.727463,334.69428c-6.100476,68.768999 -32.998028,141.697413 -76.255946,207.416173c-20.242488,30.502378 -52.685926,69.046293 -62.391229,74.037591c-5.268593,2.772943 -57.39993,3.604827 -228.767838,3.327532c-122.009514,0 -224.331129,-1.109177 -227.658661,-2.495649zm452.544378,-80.96995c10.259891,-14.142012 19.687899,-27.452141 21.351665,-29.115907c1.94106,-2.772943 -47.694628,-3.604827 -246.237382,-3.604827l-248.733031,0l4.714004,7.764242c6.37777,9.982597 26.065669,36.32556 32.998028,44.367096l5.268593,6.100476l411.782109,0l18.856016,-25.51108zm64.054995,-115.077155c11.646363,-32.166145 13.587423,-39.098503 19.13331,-68.768999c7.209653,-38.821209 3.604827,-113.413389 -8.873419,-182.182388l-1.94106,-10.537185l-297.259542,0l-297.259542,0l-3.050238,16.083072c-7.764242,39.930386 -9.428008,54.904281 -10.81448,97.884905c-2.218355,62.113934 4.159415,102.876204 23.015431,151.680009l7.764242,19.965193l560.689174,0l8.596125,-24.124608zm-7.486947,-320.552268c0,-3.327532 -15.528484,-50.744866 -20.797076,-63.500406c-1.94106,-4.714004 -16.914955,-4.991298 -259.270217,-4.991298c-202.424875,0 -257.883745,0.831883 -260.1021,3.604827c-3.327532,3.882121 -22.738137,59.063696 -22.738137,64.609583c0,3.327532 41.871447,3.882121 281.453765,3.882121c229.599721,0 281.453765,-0.554589 281.453765,-3.604827z"/>
   <path stroke="null" id="svg_2" fill="#ffffff" fill-rule="nonzero" d="m505.904706,328.632362c-40.484975,-12.478246 -31.611556,-72.928414 10.81448,-72.928414c14.142012,0 24.401903,5.823181 31.88885,18.301427c17.19225,28.006729 -10.81448,64.054995 -42.70333,54.626987z"/>
   <path stroke="null" id="svg_3" fill="#ffffff" fill-rule="nonzero" d="m333.704915,248.494295c-47.417334,-21.906254 -46.030862,-92.339018 1.94106,-112.304211c14.419306,-6.100476 38.821209,-5.545887 51.576749,0.831883c21.906254,11.369068 34.384499,31.611556 34.384499,55.736164c0,24.124608 -12.478246,44.367096 -34.384499,55.736164c-13.587423,6.932359 -38.543915,6.932359 -53.517809,0z"/>
   <path stroke="null" id="svg_4" fill="#ffffff" fill-rule="nonzero" d="m483.443864,140.349499c-34.661794,-15.528484 -41.316858,-60.172874 -12.478246,-84.574777c41.039564,-34.384499 100.380554,11.646363 77.919712,60.727463c-6.100476,13.310129 -12.200951,19.13331 -26.065669,24.956491c-13.310129,5.545887 -25.788374,5.268593 -39.375798,-1.109177z"/>
  </g>
</svg>